<?xml version="1.0" encoding="utf-8"?>
<!-- Generator: Adobe Illustrator 16.0.4, SVG Export Plug-In . SVG Version: 6.00 Build 0)  -->
<!DOCTYPE svg PUBLIC "-//W3C//DTD SVG 1.1//EN" "http://www.w3.org/Graphics/SVG/1.1/DTD/svg11.dtd">
<svg version="1.1" id="Layer_1" xmlns="http://www.w3.org/2000/svg" xmlns:xlink="http://www.w3.org/1999/xlink" x="0px" y="0px"
	 width="24px" height="24px" viewBox="0 0 24 24" enable-background="new 0 0 24 24" xml:space="preserve">
<g>
	<g>
		<path fill="#010101" d="M21.07,3.87H2.936C1.315,3.87,0,5.185,0,6.805V19.2c0,1.617,1.315,2.93,2.936,2.93h18.129
			c1.623,0,2.936-1.312,2.936-2.93V6.808C24.006,5.191,22.688,3.87,21.07,3.87z M22.664,19.2c0,0.879-0.715,1.594-1.594,1.594H2.936
			c-0.879,0-1.594-0.715-1.594-1.594V6.808c0-0.879,0.715-1.594,1.594-1.594h18.129c0.879,0,1.594,0.715,1.594,1.594V19.2H22.664z"
			/>
		<path fill="#010101" d="M15.135,12.846l5.871-5.261c0.275-0.249,0.299-0.671,0.053-0.949c-0.252-0.272-0.674-0.299-0.949-0.05
			l-8.098,7.265l-1.579-1.412c-0.003-0.003-0.009-0.009-0.009-0.015c-0.035-0.032-0.07-0.064-0.108-0.094L3.888,6.58
			c-0.278-0.246-0.7-0.223-0.949,0.056c-0.246,0.278-0.223,0.7,0.056,0.949l5.938,5.308l-5.912,5.534
			c-0.27,0.258-0.284,0.68-0.032,0.949c0.135,0.141,0.313,0.211,0.492,0.211c0.164,0,0.328-0.059,0.457-0.176l6.003-5.613
			l1.629,1.453c0.129,0.117,0.29,0.17,0.448,0.17s0.322-0.064,0.445-0.176l1.676-1.5l5.971,5.672
			c0.129,0.123,0.293,0.182,0.457,0.182c0.182,0,0.352-0.07,0.492-0.205c0.246-0.27,0.24-0.697-0.029-0.949L15.135,12.846z"/>
	</g>
</g>
</svg>
