<?xml version="1.0" encoding="utf-8"?>
<!-- Generator: Adobe Illustrator 16.0.4, SVG Export Plug-In . SVG Version: 6.00 Build 0)  -->
<!DOCTYPE svg PUBLIC "-//W3C//DTD SVG 1.1//EN" "http://www.w3.org/Graphics/SVG/1.1/DTD/svg11.dtd">
<svg version="1.1" id="Layer_1" xmlns="http://www.w3.org/2000/svg" xmlns:xlink="http://www.w3.org/1999/xlink" x="0px" y="0px"
	 width="42px" height="48px" viewBox="3 0 42 48" enable-background="new 3 0 42 48" xml:space="preserve">
<path d="M23.998,0L3.214,12v24l20.784,12l20.788-12V12L23.998,0z M24.65,2.686l17.133,9.889L7.519,32.357L24.65,2.686z
	 M11.19,21.999l-5.323-9.221l15.971-9.221L11.19,21.999z M10.035,23.999L5.214,32.35V15.647L10.035,23.999z M40.479,15.639
	L23.347,45.314L6.212,35.421L40.479,15.639z M36.777,26.051l5.353,9.174l-15.97,9.219L36.777,26.051z M37.93,24.056l4.856-8.415
	v16.738L37.93,24.056z"/>
</svg>
