<?xml version="1.0" encoding="utf-8"?>
<!-- Generator: Adobe Illustrator 16.0.4, SVG Export Plug-In . SVG Version: 6.00 Build 0)  -->
<!DOCTYPE svg PUBLIC "-//W3C//DTD SVG 1.1//EN" "http://www.w3.org/Graphics/SVG/1.1/DTD/svg11.dtd">
<svg version="1.1" id="Layer_1" xmlns="http://www.w3.org/2000/svg" xmlns:xlink="http://www.w3.org/1999/xlink" x="0px" y="0px"
	 width="32px" height="32px" viewBox="0 0 32 32" enable-background="new 0 0 32 32" xml:space="preserve">
<path d="M30.7,0H1.3C0.6,0,0,0.6,0,1.3v29.3C0,31.4,0.6,32,1.3,32h29.3c0.7,0,1.301-0.6,1.301-1.3V1.3C32,0.6,31.4,0,30.7,0z
	 M9.5,27.3H4.7V12h4.8V27.3z M7.1,9.9c-1.5,0-2.8-1.2-2.8-2.8c0-1.5,1.2-2.8,2.8-2.8c1.5,0,2.8,1.2,2.8,2.8S8.6,9.9,7.1,9.9z
	 M27.3,27.3h-4.7V19.9c0-1.801,0-4-2.5-4s-2.8,1.9-2.8,3.9V27.4h-4.7V12H17v2.1h0.1c0.601-1.2,2.2-2.5,4.5-2.5
	c4.801,0,5.7,3.2,5.7,7.3V27.3z"/>
</svg>
